<svg width="8" height="11" fill="none" xmlns="http://www.w3.org/2000/svg"><path fill-rule="evenodd" clip-rule="evenodd" d="M4 5.25c1.36 0 1.849-1.46 1.977-2.66C6.135 1.112 5.483 0 4 0S1.865 1.112 2.023 2.59C2.151 3.79 2.64 5.25 4 5.25zm4 3.835c-.017-.48-.072-.962-.154-1.435-.1-.573-.227-1.412-.718-1.786-.285-.215-.652-.286-.978-.416a4.206 4.206 0 0 1-.433-.198A2.234 2.234 0 0 1 4 6.014a2.233 2.233 0 0 1-1.717-.764 4.194 4.194 0 0 1-.433.198c-.326.13-.693.2-.978.416-.49.374-.618 1.213-.718 1.786-.082.473-.137.955-.153 1.435-.013.372.168.425.473.537.383.14.778.245 1.176.33.769.165 1.561.292 2.35.298.789-.006 1.58-.133 2.35-.298.397-.085.793-.19 1.176-.33.305-.112.486-.165.473-.537z" fill="#FFEF00"/></svg>