<svg width="18" height="18" fill="none" xmlns="http://www.w3.org/2000/svg"><path fill-rule="evenodd" clip-rule="evenodd" d="M12.516 11.016l4.968 4.968-1.5 1.5-4.968-4.968v-.797l-.282-.281c-1.218 1.03-2.625 1.546-4.218 1.546-1.813 0-3.352-.632-4.618-1.898C.633 9.82 0 8.289 0 6.492c0-1.797.633-3.328 1.898-4.594C3.164.633 4.695 0 6.492 0 8.29 0 9.82.633 11.086 1.898c1.266 1.266 1.898 2.805 1.898 4.618 0 1.593-.515 3-1.546 4.218l.28.282h.798zm-6 0c1.25 0 2.312-.438 3.187-1.313s1.313-1.937 1.313-3.187c0-1.25-.438-2.313-1.313-3.188S7.766 2.016 6.516 2.016c-1.25 0-2.313.437-3.188 1.312S2.016 5.266 2.016 6.516c0 1.25.437 2.312 1.312 3.187s1.938 1.313 3.188 1.313z" fill="#E0E0E0"/></svg>