<svg width="8" height="12" fill="none" xmlns="http://www.w3.org/2000/svg"><path fill-rule="evenodd" clip-rule="evenodd" d="M7.806 5.95a.633.633 0 0 0-.473-.2h-5.11V3.458c0-.506.173-.938.52-1.296A1.687 1.687 0 0 1 4 1.625c.49 0 .91.18 1.257.537.347.358.52.79.52 1.296a.45.45 0 0 0 .133.323c.088.09.192.136.312.136h.445c.12 0 .224-.046.312-.136a.448.448 0 0 0 .132-.323 3.14 3.14 0 0 0-.913-2.266C5.59.564 4.857.25 4 .25c-.856 0-1.59.314-2.198.942a3.139 3.139 0 0 0-.913 2.266V5.75H.667a.634.634 0 0 0-.473.2.673.673 0 0 0-.194.487v4.125a.677.677 0 0 0 .667.688h6.666a.634.634 0 0 0 .473-.2.674.674 0 0 0 .194-.488V6.438a.673.673 0 0 0-.194-.487z" fill="#fff"/></svg>